<svg xmlns="http://www.w3.org/2000/svg" width="3231.5" height="978.056" viewBox="0 0 3231.5 978.056">
  <g id="_2020_Logo_AsOneFacilityManagement" data-name="2020_Logo_AsOneFacilityManagement" transform="translate(3354.5 -384.26)">
    <g id="Groupe_4110" data-name="Groupe 4110">
      <g id="Groupe_4105" data-name="Groupe 4105">
        <path id="Tracé_8448" data-name="Tracé 8448" d="M-2574.6,683.1a331.167,331.167,0,0,1-12.3,75.9c-2.5,8.5-5.7,16.6-8.8,24.7a339.808,339.808,0,0,1-66.6,109.2c-7,7.7-14.4,15-22.1,22.1,1.6-149.2-114.2-293.5-288.2-342.7-145.9-41.2-292.5-4.1-381.9,84.2,1-7.9,2.2-15.7,3.8-23.5,1.4-7,2.7-14,4.6-20.9,2.3-8.2,5.4-16,8.4-23.8,62.2-160.3,265.1-243.2,467.7-185.9,153.8,43.6,264.6,155.6,295.4,280.7" fill="#0085b0"/>
        <path id="Tracé_8449" data-name="Tracé 8449" d="M-2535,1110c-113,112.2-265.4,153.8-390.6,119.7a336.443,336.443,0,0,1-60.8-47.6c-6.3-6.2-11.8-13-17.5-19.6a339.129,339.129,0,0,1-63.7-110.9c-3.3-9.8-6.1-19.8-8.7-29.9,130.5,73.9,313.8,43.6,441.7-83.4,107.3-106.5,145.8-251.7,111.7-372.3,6.5,4.6,12.7,9.6,18.8,14.8,5.5,4.6,11,9.1,16.2,14.2,6,6,11.4,12.4,16.8,18.9C-2360.2,745.7-2386,962-2535,1110" fill="#00845f"/>
        <path id="Tracé_8450" data-name="Tracé 8450" d="M-2835.5,1330.1q-10.5,5.55-21.6,10.2c-6.6,2.8-13.2,5.7-20.1,8-8.1,2.7-16.3,4.6-24.5,6.5-168.4,39.5-351.7-80.1-418.4-278.6-50.6-150.5-19.9-304.6,66.8-400.4a342,342,0,0,1,70-32.8c8.4-2.8,16.9-4.6,25.5-6.7a342.9,342.9,0,0,1,128.3-7c10.4,1.4,20.6,3.4,30.9,5.7-125,82.8-179.5,259.2-122.3,429.6,47.9,142.9,161.5,242,285.4,265.5" fill="#005c9c"/>
      </g>
      <g id="Groupe_4106" data-name="Groupe 4106">
        <path id="Tracé_8451" data-name="Tracé 8451" d="M-2007.9,485.6a34.937,34.937,0,0,0-2.6-7.5,3.823,3.823,0,0,0-3.6-1.8q-2.55,0-5.7,9.3l-36.3,117.7a2.811,2.811,0,0,1-.3,1.5,1.978,1.978,0,0,0-.2,1c0,2.4,1.4,3.6,4.1,3.6h77.3q4.2,0,4.2-3.6a1.929,1.929,0,0,0-.3-1,2.811,2.811,0,0,1-.3-1.5Zm-74.2-46c4.1-13.4,11.7-21.8,22.8-25.3,11.1-3.4,26.1-5.2,45.1-5.2,19.7,0,35.2,1.7,46.4,5.2,11.2,3.4,18.9,11.9,23.1,25.3l104.3,336.5c0,2.1-1.2,3.1-3.6,3.1h-68c-3.5,0-5.7-1.6-6.7-4.6l-27.5-89.3c-1.1-3.4-3.3-5.2-6.8-5.2h-121.9c-3.4,0-5.7,1.9-6.7,5.7l-27.5,88.3c-1,3.4-3.3,5.2-6.8,5.2h-67.4c-2.8,0-4.2-1-4.2-3.1Z" fill="#005c9c"/>
        <path id="Tracé_8452" data-name="Tracé 8452" d="M-1659.4,625.5a161.636,161.636,0,0,1-34.5-4.1,82.505,82.505,0,0,1-33.5-16,64.994,64.994,0,0,1-14.8-17.3,104.172,104.172,0,0,1-9.8-21.7,140.931,140.931,0,0,1-5.7-23.7,163.609,163.609,0,0,1-1.8-24v-9.8a42.034,42.034,0,0,1,1-9.3c2.4-29.9,13.7-53.2,33.7-69.7A120.8,120.8,0,0,1-1703,416c8.7-4.5,17.1-6.7,25.4-6.7h171.7c3.4,0,5.2,1.7,5.2,5.2v56.8c0,3.4-1.7,5.2-5.2,5.2h-149.9c-4.8,0-9.3,2.2-13.2,6.4a50.683,50.683,0,0,0-8.6,12.1,29,29,0,0,0-3.1,10.3c-.3,3.4-.5,6.9-.5,10.3a142.017,142.017,0,0,0,1,17,26.705,26.705,0,0,0,7.3,15.5c3.8,3.8,9.1,6,15.8,6.7a214.277,214.277,0,0,0,22,1h58.1a140.59,140.59,0,0,1,33.7,4.4,81.752,81.752,0,0,1,32.7,16.8,64.359,64.359,0,0,1,14.8,17.5,110.843,110.843,0,0,1,9.8,22.2,133.4,133.4,0,0,1,5.5,24.8,215.319,215.319,0,0,1,1.5,24.8v10.8a35.974,35.974,0,0,1-1,8.8c-2.8,31.3-13.8,55.4-33.2,72.3a138.139,138.139,0,0,1-21.5,14.2c-8.5,4.6-16.5,7-24.1,7h-188.8c-3.5,0-5.2-1.7-5.2-5.2V717.4c0-3.4,1.7-5.2,5.2-5.2h167q7.8,0,13.5-7.5a64.085,64.085,0,0,0,8.3-13.7,34.209,34.209,0,0,0,3.1-10.8,94.973,94.973,0,0,0,.5-10.9,150.259,150.259,0,0,0-1.1-17.3,29.853,29.853,0,0,0-7.3-16.3c-3.4-3.8-8.4-6.4-14.8-8a94.156,94.156,0,0,0-22.6-2.3h-58.4Z" fill="#005c9c"/>
        <path id="Tracé_8453" data-name="Tracé 8453" d="M-1058.7,473.5a134.5,134.5,0,0,0-24.9,3.3c-12.5,3.1-21.3,9.2-26.5,18.3s-7.8,22.8-7.8,41V654.8c0,18.2,2.6,31.9,7.8,41s14,15.2,26.5,18.3a142.74,142.74,0,0,0,24.9,3.4c9.7.5,19.9.8,30.6.8s20.9-.2,30.6-.8a125.853,125.853,0,0,0,24.9-3.4c12.4-3.1,21.3-9.2,26.5-18.3s7.8-22.8,7.8-41V536.2c0-18.2-2.6-31.9-7.8-41s-14-15.2-26.5-18.3a134.5,134.5,0,0,0-24.9-3.3c-9.7-.5-19.9-.8-30.6-.8-10.8-.1-21,.1-30.6.7M-1193.1,594c0-20.3.2-37.9.5-52.7s1.4-26.8,3.1-36.1c2.8-13.4,5.7-25.4,8.8-36.1s7.3-19.4,12.5-26.3a104.845,104.845,0,0,1,25.9-23.5,105.849,105.849,0,0,1,33.2-14.2c8.3-1.7,19.2-2.7,32.7-3.1,13.5-.3,29.6-.5,48.2-.5,18.7,0,34.7.2,48.2.5,13.5.4,24.4,1.4,32.7,3.1a103.58,103.58,0,0,1,33.2,14.2,101.245,101.245,0,0,1,25.9,23.5c5.2,6.9,9.3,15.7,12.4,26.3,3.1,10.7,6,22.7,8.8,36.1,1.7,9.3,2.7,21.4,3.1,36.1.3,14.8.5,32.4.5,52.7v3.1c0,20.3-.2,37.9-.5,52.6-.4,14.8-1.4,26.8-3.1,36.1-2.8,13.4-5.7,25.5-8.8,36.1-3.1,10.7-7.3,19.4-12.4,26.3a104.845,104.845,0,0,1-25.9,23.5,105.848,105.848,0,0,1-33.2,14.2c-8.3,1.7-19.2,2.7-32.7,3.1-13.5.3-29.6.5-48.2.5-18.7,0-34.8-.2-48.2-.5-13.5-.3-24.4-1.4-32.7-3.1a105.846,105.846,0,0,1-33.2-14.2,101.245,101.245,0,0,1-25.9-23.5c-5.2-6.9-9.3-15.7-12.5-26.3-3.1-10.7-6-22.7-8.8-36.1-1.7-9.3-2.8-21.3-3.1-36.1-.4-14.8-.5-32.3-.5-52.6Z" fill="#005c9c"/>
        <path id="Tracé_8454" data-name="Tracé 8454" d="M-771.9,485.1c0-13.4,1.2-24.9,3.6-34.6,2.4-9.6,6.6-17.5,12.4-23.5,5.9-6,13.7-10.5,23.6-13.4,9.8-2.9,22.2-4.4,37.1-4.4,21.8,0,37.6,3.4,47.4,10.3,9.9,6.9,16.5,16.4,20,28.4l69.5,255c1,3.4,2.7,5.2,5.2,5.2,2.4,0,3.6-1.7,3.6-5.2V414.3c0-3.4,1.7-5.2,5.2-5.2h64.8c3.4,0,5.2,1.7,5.2,5.2V719.9a55.614,55.614,0,0,1-4.1,20.6,76.59,76.59,0,0,1-11.2,19.1,56.29,56.29,0,0,1-16.6,14.2,41.069,41.069,0,0,1-20.5,5.4h-47.7a29.753,29.753,0,0,1-13.2-3.4,56.288,56.288,0,0,1-13.2-8.8,65.966,65.966,0,0,1-10.9-12.1,48.4,48.4,0,0,1-6.8-13.9l-70-256.5c-1-3.1-2.6-4.6-4.7-4.6-2.4,0-3.6,1.6-3.6,4.6V774.1c0,3.4-1.7,5.2-5.2,5.2h-64.8c-3.5,0-5.2-1.7-5.2-5.2v-289Z" fill="#005c9c"/>
        <path id="Tracé_8455" data-name="Tracé 8455" d="M-380.3,488.2q0-35.1,19.2-57t55.5-21.9h175.8c4.5,0,6.8,1.7,6.8,5.2v56.8c0,3.4-1.8,5.2-5.2,5.2H-299.9c-3.4,0-5.2,1.9-5.2,5.7v70.2c0,3.4,1.7,5.2,5.2,5.2h159.2c3.4,0,5.2,1.7,5.2,5.2v59.4c0,3.4-1.7,5.2-5.2,5.2H-299.9c-3.4,0-5.2,1.7-5.2,5.2V707c0,3.4,1.7,5.2,5.2,5.2h171.7c3.4,0,5.2,1.7,5.2,5.2v56.8c0,3.4-1.8,5.2-5.2,5.2H-329a39.877,39.877,0,0,1-18.7-4.9,61.792,61.792,0,0,1-16.6-12.6,64.8,64.8,0,0,1-11.6-17.3,44.957,44.957,0,0,1-4.4-19.4v-237Z" fill="#005c9c"/>
      </g>
      <g id="Groupe_4109" data-name="Groupe 4109">
        <path id="Tracé_8456" data-name="Tracé 8456" d="M-2082.4,961.2h-92.2v71.6h78.5v11.7h-78.5v79h-13.1V949.4h105.3Z" fill="#00845f"/>
        <path id="Tracé_8457" data-name="Tracé 8457" d="M-1921.5,1069.4-1957.8,967l-36.3,102.4Zm33.3,54.1h-14.1l-15.1-42.3h-80.9l-15.1,42.3h-14.1l63.9-174h11.7Z" fill="#00845f"/>
        <g id="Groupe_4107" data-name="Groupe 4107">
          <path id="Tracé_8458" data-name="Tracé 8458" d="M-1713.1,1103.2q-22.95,21.75-49,21.8c-17.1,0-31.5-5.9-43.4-17.8a49.885,49.885,0,0,1-13.9-26.4c-1.5-7.5-2.2-22.2-2.2-44.2s.7-36.7,2.2-44.2a49.2,49.2,0,0,1,13.9-26.4c11.9-11.9,26.3-17.8,43.4-17.8q26.1,0,49,21.8l-8.8,8.8c-6.7-6.5-12.6-11.2-17.8-13.9a48.9,48.9,0,0,0-22.4-4.9c-13.2,0-24.1,4.5-32.9,13.5a43.189,43.189,0,0,0-11.5,22.2c-1.3,7.3-1.9,21-1.9,41,0,20.1.6,33.8,1.9,41.1A43.188,43.188,0,0,0-1795,1100c8.8,9,19.7,13.5,32.9,13.5a47.718,47.718,0,0,0,22.4-5.1c5.2-2.6,11.1-7.2,17.8-13.7Z" fill="#00845f"/>
        </g>
        <rect id="Rectangle_17386" data-name="Rectangle 17386" width="13.2" height="174" transform="translate(-1626.6 949.4)" fill="#00845f"/>
        <path id="Tracé_8459" data-name="Tracé 8459" d="M-1411.6,1123.5h-105.3v-174h13.2v162.2h92.1Z" fill="#00845f"/>
        <rect id="Rectangle_17387" data-name="Rectangle 17387" width="13.2" height="174" transform="translate(-1334.6 949.4)" fill="#00845f"/>
        <path id="Tracé_8460" data-name="Tracé 8460" d="M-1127.6,961.2h-51.9v162.3h-13.2V961.2h-51.7V949.4h116.8Z" fill="#00845f"/>
        <path id="Tracé_8461" data-name="Tracé 8461" d="M-959.4,949.4l-51.2,102v72.1h-13.1v-72.1l-51.2-102h14.1l44.1,88,43.2-88Z" fill="#00845f"/>
        <path id="Tracé_8462" data-name="Tracé 8462" d="M-2055.1,1180.6l-59,134.2-60.5-134.2h-13.1v174h13.1V1211.2l53.7,119h13.1l52.7-119v143.4h13.1v-174Z" fill="#00845f"/>
        <path id="Tracé_8463" data-name="Tracé 8463" d="M-1898.9,1198.2l36.3,102.4h-72.7Zm-5.8-17.6-63.9,174h14.1l15.1-42.3h80.9l15.1,42.3h14.1l-63.9-174Z" fill="#00845f"/>
        <path id="Tracé_8464" data-name="Tracé 8464" d="M-1642.4,1180.6v150.8l-100.2-150.8h-13.2v174h13.2V1203.3l100.2,151.3h13.1v-174Z" fill="#00845f"/>
        <path id="Tracé_8465" data-name="Tracé 8465" d="M-1486.2,1198.2l36.3,102.4h-72.7Zm-5.8-17.6-63.9,174h14.1l15.1-42.3h80.9l15.1,42.3h14.1l-63.8-174Z" fill="#00845f"/>
        <g id="Groupe_4108" data-name="Groupe 4108">
          <path id="Tracé_8466" data-name="Tracé 8466" d="M-1230.7,1294q0,26.7-14.1,42c-12.2,13.4-27.4,20-45.6,20-17.1,0-31.5-5.9-43.4-17.8a49.885,49.885,0,0,1-13.9-26.4c-1.5-7.5-2.2-22.3-2.2-44.2s.7-36.7,2.2-44.2a49.2,49.2,0,0,1,13.9-26.4c11.9-11.9,26.3-17.8,43.4-17.8,10.6,0,20.1,2.1,28.5,6.4,7.1,3.6,14.9,9.5,23.2,17.8l-8.8,8.8c-7.5-7.5-13.8-12.7-19-15.6-6.8-3.7-14.8-5.6-23.9-5.6-13,0-24,4.5-32.9,13.4a42.228,42.228,0,0,0-11.4,22.3c-1.3,7.3-2,21-2,41,0,20.1.7,33.7,2,41.1a43.807,43.807,0,0,0,11.4,22.2c8.8,9,19.8,13.5,32.9,13.5,14.8,0,26.8-5.6,36.1-16.9q10.5-12.75,10.5-34.5v-15.6h-46.6v-11.7h59.7V1294Z" fill="#00845f"/>
        </g>
        <path id="Tracé_8467" data-name="Tracé 8467" d="M-1142.2,1180.6v174h105.3v-11.7H-1129v-70.1h78.5V1261H-1129v-68.7h92.1v-11.7Z" fill="#00845f"/>
        <path id="Tracé_8468" data-name="Tracé 8468" d="M-820.9,1180.6l-59,134.2-60.5-134.2h-13.1v174h13.1V1211.2l53.7,119h13.1l52.7-119v143.4h13.1v-174Z" fill="#00845f"/>
        <path id="Tracé_8469" data-name="Tracé 8469" d="M-711.2,1180.6v174h105.3v-11.7h-92.2v-70.1h78.5V1261h-78.5v-68.7h92.2v-11.7Z" fill="#00845f"/>
        <path id="Tracé_8470" data-name="Tracé 8470" d="M-409.2,1180.6v150.8l-100.2-150.8h-13.1v174h13.1V1203.3l100.2,151.3H-396v-174Z" fill="#00845f"/>
        <path id="Tracé_8471" data-name="Tracé 8471" d="M-319,1180.6v11.7h51.7v162.3h13.1V1192.3h52v-11.7Z" fill="#00845f"/>
      </g>
    </g>
  </g>
</svg>
